<?xml version="1.0" encoding="UTF-8"?>
<svg id="Capa_1" data-name="Capa 1" xmlns="http://www.w3.org/2000/svg" viewBox="0 0 59.73 59.73">
  <defs>
    <style>
      .cls-1 {
        fill: #ccc;
      }
    </style>
  </defs>
  <path class="cls-1" d="m30.17,32.99c-4.16,0-8.39,3.54-9.69,9.42h19.38c-1.31-5.88-5.53-9.42-9.69-9.42Z"/>
  <ellipse class="cls-1" cx="30.17" cy="18.45" rx="4.82" ry="4.71"/>
  <path class="cls-1" d="m29.87,0C13.37,0,0,13.37,0,29.87s13.37,29.87,29.87,29.87,29.87-13.37,29.87-29.87S46.36,0,29.87,0Zm.3,10.15c4.64,0,8.4,3.71,8.4,8.3,0,3.48-2.17,6.46-5.25,7.69-.97.39-2.04.6-3.15.6s-2.18-.21-3.15-.6c-3.08-1.23-5.25-4.21-5.25-7.69,0-4.58,3.76-8.3,8.4-8.3Zm10.93,35.84h-21.86c-1.51,0-2.76-1.5-2.46-3.3,1.04-6.29,5.02-11.29,10.12-12.82,1.05-.31,2.15-.48,3.27-.48s2.23.17,3.27.48c5.1,1.52,9.08,6.53,10.12,12.82.3,1.8-.95,3.3-2.46,3.3Z"/>
</svg>